<?xml version="1.0" standalone="no"?>
<!DOCTYPE svg PUBLIC "-//W3C//DTD SVG 20010904//EN"
 "http://www.w3.org/TR/2001/REC-SVG-20010904/DTD/svg10.dtd">
<svg version="1.0" xmlns="http://www.w3.org/2000/svg"
 width="512.000000pt" height="512.000000pt" viewBox="0 0 512.000000 512.000000"
 preserveAspectRatio="xMidYMid meet">

<g transform="translate(0.000000,512.000000) scale(0.100000,-0.100000)"
fill="#000000" stroke="none">
<path d="M4056 5105 c-58 -20 -2664 -2626 -2701 -2700 -18 -35 -54 -186 -120
-495 -143 -678 -148 -705 -141 -735 12 -46 49 -75 99 -75 66 0 1167 235 1213
258 24 13 563 546 1360 1344 1496 1498 1370 1356 1339 1500 -25 118 -49 180
-106 283 -134 242 -321 421 -568 545 -136 68 -302 101 -375 75z m-2403 -2906
c193 -65 405 -258 510 -465 35 -70 63 -182 49 -196 -10 -10 -407 -98 -441 -98
-10 0 -23 18 -33 48 -40 113 -143 214 -254 249 -30 9 -54 21 -54 25 0 16 91
442 96 450 9 14 63 9 127 -13z"/>
<path d="M250 4180 c-99 -18 -168 -66 -215 -151 l-30 -54 0 -1880 0 -1880 23
-42 c35 -66 79 -110 140 -140 l57 -28 1865 0 1865 0 57 28 c61 30 105 74 140
140 l23 42 3 1105 2 1105 -290 -290 -290 -290 0 -627 0 -628 -1505 0 -1505 0
0 1505 0 1505 623 0 622 0 288 288 c158 158 287 290 287 295 0 10 -2103 7
-2160 -3z"/>
</g>
</svg>
